<?xml version="1.0" encoding="utf-8"?>
<!-- Generator: Adobe Illustrator 18.1.0, SVG Export Plug-In . SVG Version: 6.00 Build 0)  -->
<svg version="1.1" id="Layer_1" xmlns="http://www.w3.org/2000/svg" xmlns:xlink="http://www.w3.org/1999/xlink" x="0px" y="0px"
	 viewBox="0 0 612 232.2" enable-background="new 0 0 612 232.2" xml:space="preserve">
<polygon fill="#FFFFFF" points="6.3,9.3 27,9.3 27,5.1 27,5.1 0,5.1 27.2,66.2 31.7,66.2 6.3,9.3 "/>
<polygon fill="#FFFFFF" points="242.8,216.4 239.1,218.1 243.5,227.8 150.4,228.1 147.2,213.9 139.2,212.1 136.9,198.9 129.7,191.1 
	119.5,186.4 117.7,177.6 92.4,170.5 84.9,159.9 66.2,143.7 62.6,135.6 58.1,135.6 62.8,146.2 81.8,162.6 89.8,174.1 114.1,180.9 
	115.8,189.2 127.2,194.5 133,200.8 135.7,215.6 143.7,217.3 147.1,232.2 249.9,231.9 242.8,216.4 "/>
<g>
	<polygon fill="#FFFFFF" points="99.6,46.8 110.7,46.8 119.1,66.6 180.9,66.6 150.7,0 90.6,0 106.4,36.3 95.6,36.3 79.1,0 8.2,0 
		37.8,66.6 108.2,66.6 	"/>
	<path fill="#FFFFFF" d="M185.6,223l66.1-0.3l-39.5-87.2H68.6l1,2.3l18.8,16.3l7.8,11l24.8,7l1.8,8.5l10.8,5l6.5,7l2.5,14l8,1.8
		l3.3,14.5l21-0.3l-15.3-35.1h10.8L185.6,223z M154.5,177.1l-16-36.8h11l15.8,36.8H154.5z"/>
</g>
<path fill="#FFFFFF" d="M30.3,108.3c-1.5,0-1.7,0.1-2.1,1.3l-2.4,7.4c-0.4,1.3-0.4,1.8-0.4,2.3c0,0.4,0.5,0.8,2.3,1.1l1.9,0.3
	c0.4,0.4,0.5,1.9-0.1,2.2c-2.2-0.1-4.8-0.1-7.5-0.2c-2.2,0-3.7,0.2-6.6,0.2c-0.7-0.4-0.6-1.7-0.2-2.2l1.7-0.2
	c1.5-0.2,2.9-0.7,3.9-3.2c1.2-2.6,2.2-5.6,4-10.3l5.8-15.6c1.5-4,2.7-6.3,2.5-8.1c3.1-0.7,5.5-3.9,5.6-3.9c0.8,0,1.2,0.3,1.5,1.3
	c0.5,1.9,1.3,4.2,2.9,8.8l8.7,25.1c1.3,3.8,1.9,5.3,4.3,5.7l2.4,0.4c0.4,0.3,0.5,1.9-0.1,2.2c-3.1-0.1-6.5-0.2-9.9-0.2
	c-3.2,0-5.7,0.1-8.7,0.2c-0.7-0.4-0.8-1.7-0.1-2.2l2.1-0.3c1.5-0.3,1.7-0.7,1.7-1.1c0-0.5-0.4-2-1.2-4.4l-1.7-5.5
	c-0.3-1-0.8-1.2-3.1-1.2H30.3L30.3,108.3z M37.2,104.9c1.5,0,1.9-0.2,1.3-1.9l-1.7-5.2c-0.9-2.8-1.7-5.4-2.3-6.7
	c-0.6,1.4-1.7,4.1-2.6,7.1l-1.6,4.8c-0.6,1.7-0.3,1.9,1.3,1.9H37.2L37.2,104.9z"/>
<path fill="#FFFFFF" d="M62.1,81.7c-0.5-0.5-0.5-2.1,0.2-2.2c2.2,0.1,4.9,0.2,8.1,0.2c2.1,0,4,0,6.3-0.2c0,4,2.2,7.9,5.1,13.9l4.2,9
	c0.6,1.3,2.6,4.9,3.5,6.5c0.8-1.5,1.9-3.5,3.6-7.3l3.3-7.1c3.1-6.6,4.5-9.6,5.9-15.1c2.9,0.3,4.9,0.2,6.9,0.2c2.1,0,5.1-0.1,7.4-0.2
	c0.7,0.4,0.7,1.6,0.2,2.2l-1.9,0.3c-2.6,0.5-3.9,1.2-3.9,4.6c0,13.2,0.1,20.1,0.5,28.2c0.1,2.9,0.4,4.4,2.9,4.8l2.1,0.3
	c0.5,0.5,0.5,2-0.1,2.2c-2.9-0.1-5.7-0.2-8.8-0.2c-2.9,0-6.4,0.1-9.5,0.2c-0.8-0.3-0.8-1.8-0.2-2.2l1.9-0.3c2.9-0.6,2.9-1.2,2.9-5.1
	L102.4,98v-7.3h-0.1c-4.7,10.3-9.9,21-14.1,31.8c-0.3,0.3-0.8,0.4-1.3,0.4c-0.6,0-1.3-0.1-1.7-0.4c-2.5-8-10.1-23.5-13.7-31.9h-0.1
	c-0.3,4.2-0.4,6.7-0.4,10c-0.1,4.2-0.1,10.6-0.1,14.4c0,3.2,0.4,4,2.9,4.5l2.5,0.4c0.5,0.4,0.4,1.9-0.1,2.2
	c-2.4-0.1-5.1-0.2-7.6-0.2c-2.1,0-4.7,0.1-7.2,0.2c-0.8-0.3-0.8-1.9-0.3-2.2l1.2-0.2c3.3-0.6,3.5-1,3.8-4.9c0.3-3.1,0.6-8.7,1-14.8
	c0.3-4.3,0.4-9.5,0.4-13c0-3.7-1.4-4.5-4-5.1L62.1,81.7L62.1,81.7z"/>
<path fill="#FFFFFF" d="M150.6,106.1c-3.3,7.8-5,12.8-6.5,16.4c-0.5,0.3-1.3,0.5-2.2,0.5c-0.8,0-1.3-0.2-1.7-0.5
	c-0.7-1.7-1.8-5.1-2.7-7.3L127,89.1c-2.6-6.5-2.5-6.2-5.6-7l-1.8-0.4c-0.5-0.7-0.3-1.9,0.3-2.2c3.3,0.1,5.4,0.2,8.7,0.2
	c3,0,5.7-0.1,9.6-0.2c0.5,0.4,0.4,1.6,0.1,2.2l-1.9,0.4c-1.2,0.3-1.6,0.6-1.6,1.2c0,0.5,1,3.2,2.6,7.1l5.6,14.4
	c0.9,2.4,1.5,3.8,2,4.9c0.5-1.1,1.3-2.8,2.1-4.7l2.4-6c1.7-4,4.3-11.2,5.1-13.4c0.5-1.2,0.6-1.9,0.6-2.3c0-0.5-0.2-0.8-1.7-1.1
	l-1.9-0.4c-0.5-0.5-0.5-1.9,0.3-2.2c3,0.1,5.5,0.2,7.9,0.2c2.2,0,4.1-0.1,6-0.2c0.5,0.3,0.6,1.8,0.1,2.2l-1.7,0.3
	c-1.8,0.4-2.7,0.9-3.5,2.2c-1.4,2.1-3.1,5.6-5.3,10.8L150.6,106.1L150.6,106.1z"/>
<path fill="#FFFFFF" d="M182.8,112.6c0,6,0.4,6.5,3.3,7l1.8,0.3c0.5,0.4,0.4,1.9-0.1,2.2c-3.5-0.1-6.6-0.2-9.6-0.2
	c-3.1,0-6.3,0.1-9.7,0.2c-0.5-0.4-0.5-1.9,0-2.2l1.8-0.3c2.9-0.5,3.3-1,3.3-7V89c0-6-0.4-6.5-3.3-7l-1.8-0.3c-0.5-0.4-0.5-1.9,0-2.2
	c3.5,0.1,6.7,0.2,9.7,0.2c3,0,6.2-0.1,9.7-0.2c0.5,0.4,0.5,1.9,0,2.2l-1.8,0.3c-2.9,0.5-3.3,1-3.3,7V112.6L182.8,112.6z"/>
<path fill="#FFFFFF" d="M229.7,81.2c0,1.2,0.2,6.3,0.8,10c-0.3,0.8-2,1-2.4,0.4c-1.7-6-5.8-9.2-12.1-9.2c-7.1,0-14.8,6.1-14.8,18.9
	c0,12.8,7.4,19.6,15.1,19.6c7.8,0,11.4-5.6,13.1-9.9c0.5-0.5,2.1-0.3,2.4,0.4c-0.5,4.7-1.5,8.6-2.4,10.1c-3.5,1-8,2.4-13,2.4
	c-6.3,0-12.7-1.5-17.3-4.9c-4.6-3.5-8.1-8.9-8.1-16.8c0-7.8,3.3-13.3,7.8-17c4.6-3.8,11.1-5.7,17.8-5.7
	C223.1,79.5,227.8,81,229.7,81.2L229.7,81.2z"/>
<path fill="#FFFFFF" d="M269.3,111.4c0-3.4,0.2-3.7,1.9-4l1-0.2c0.3-0.2,0.3-1.1,0-1.3c-2,0.1-3.8,0.1-5.5,0.1c-1.7,0-3.6,0-5.5-0.1
	c-0.3,0.2-0.3,1.1,0,1.3l1,0.2c1.7,0.3,1.9,0.5,1.9,4v13.3c0,3.4-0.2,3.7-1.9,4l-1,0.2c-0.3,0.2-0.3,1.1,0,1.3
	c2-0.1,3.8-0.1,5.5-0.1c1.7,0,3.5,0,5.4,0.1c0.3-0.2,0.3-1.1,0-1.3l-1-0.2c-1.7-0.3-1.9-0.5-1.9-4V111.4L269.3,111.4z M290,119.7
	c0-2.1,0.1-4,0.4-4.6c0.2-0.5,0.7-0.7,1.4-0.8l0.5-0.1c0.2-0.2,0.2-0.7,0-0.9c-1,0.1-1.9,0.1-2.8,0.1c-1,0-2,0-3.4-0.1
	c-0.2,0.2-0.2,0.7,0,0.9l0.7,0.1c0.7,0.1,1.2,0.3,1.5,0.8c0.3,0.7,0.4,2.6,0.4,4.6v3.5c0,0.5,0,0.9-0.1,1.1
	c-0.6-0.6-1.3-1.5-2.4-2.8l-2.1-2.5c-2.3-2.7-3.9-4.6-4.2-5.8c-0.5,0.1-1.3,0.1-2.1,0.1c-1,0-2.3,0-3.5-0.1
	c-0.3,0.1-0.3,0.7-0.1,0.9l0.7,0.1c0.9,0.1,1.2,0.4,1.4,0.9c0.2,0.4,0.2,0.8,0.2,2.2v6.4c0,2.1-0.1,4-0.4,4.6
	c-0.2,0.5-0.7,0.7-1.4,0.8l-0.4,0.1c-0.2,0.2-0.2,0.7,0,0.9c1-0.1,1.9-0.1,2.8-0.1c1,0,2,0,3.4,0.1c0.2-0.2,0.2-0.7,0-0.9l-0.7-0.1
	c-0.7-0.1-1.2-0.3-1.5-0.8c-0.3-0.7-0.4-2.6-0.4-4.6v-4.9c0-0.9,0-1.4,0.1-1.6c0.5,0.4,1.3,1.4,2.8,3.2l5.9,7.3
	c1.2,1.5,2,2.8,2.1,2.8c0.6,0,1.3-0.3,1.5-0.6c-0.1-0.8-0.1-2.4-0.1-4.1V119.7L290,119.7z M295.3,126.4c0,2.3-0.2,2.5-1.3,2.7
	l-0.8,0.1c-0.2,0.1-0.2,0.7,0,0.9c1.4-0.1,2.7-0.1,4-0.1c0.9,0,2.2,0.2,3.4,0.2c2.6,0,4.7-0.3,6.4-1.2c2.9-1.4,4.5-4.2,4.5-7.6
	c0-3.2-1.8-6.2-5.2-7.4c-1.8-0.6-3.8-0.8-5.9-0.8c-2.7,0-4.7,0.1-6.8,0.2c-0.3,0-0.3,0.8-0.1,0.9l0.5,0.1c1.2,0.1,1.2,0.6,1.2,3
	V126.4L295.3,126.4z M298.9,116.2c0-0.8,0-1.3,0.2-1.5c0.2-0.2,0.6-0.3,1.3-0.3c4.6,0,7,2.7,7,7.3c0,3.5-1.5,7.4-5.9,7.4
	c-0.9,0-1.6-0.2-2.1-0.7c-0.5-0.5-0.5-1.4-0.5-2.8V116.2L298.9,116.2z M315.3,123.3c0,2.8,0.6,4.6,1.9,5.7c1.4,1.1,3.1,1.4,5,1.4
	c2.1,0,3.9-0.6,5-1.8c1.4-1.5,1.6-3.7,1.6-6.1v-2.8c0-2.1,0.1-4,0.4-4.6c0.2-0.5,0.7-0.7,1.4-0.8l0.5-0.1c0.2-0.2,0.2-0.7,0-0.9
	c-1,0.1-1.9,0.1-2.8,0.1c-1,0-2,0-3.4-0.1c-0.2,0.2-0.2,0.7,0,0.9l0.7,0.1c0.7,0.1,1.2,0.3,1.5,0.8c0.3,0.7,0.4,2.6,0.4,4.6v3.1
	c0,3.5-1,6.3-4.2,6.3c-3.9,0-4.2-3.3-4.2-6.2V117c0-2.4,0.2-2.6,1.3-2.8l0.6-0.1c0.2-0.2,0.2-0.7,0-0.9c-1.2,0.1-2.5,0.1-3.7,0.1
	c-1.2,0-2.5,0-3.7-0.1c-0.3,0.2-0.3,0.7-0.1,0.9l0.6,0.1c1.1,0.2,1.3,0.4,1.3,2.7V123.3L315.3,123.3z M343.4,125.3
	c0-2.8-2-4.3-3.6-5.1l-1.7-0.9c-1.3-0.7-2.3-1.7-2.3-2.9c0-1.3,0.9-2.4,2.6-2.4c1.8,0,2.9,1.9,3.3,3.1c0.2,0.3,0.9,0.2,1-0.1
	c0-1.7-0.3-3.1-0.5-3.6c-0.3-0.1-0.5-0.1-0.9-0.2c-1-0.3-2.1-0.4-2.9-0.4c-3.7,0-5.9,2-5.9,4.8c0,2.5,2,4,3.8,4.9
	c1.5,0.8,3.5,2,3.5,4c0,1.3-0.9,2.6-2.7,2.6c-2.2,0-3.9-2.3-4.4-4c-0.2-0.3-0.8-0.3-1,0.1c0,1.7,0.3,3.6,0.8,4.1c0.5,0.3,2,1,4.3,1
	C340.9,130.5,343.4,128.4,343.4,125.3L343.4,125.3z M350.6,126.4c0,2.4-0.2,2.6-1.3,2.7l-1.1,0.1c-0.2,0.2-0.2,0.7,0,0.9
	c1.8-0.1,3.1-0.1,4.3-0.1c1.1,0,2.4,0,4.1,0.1c0.2-0.2,0.2-0.7,0-0.9l-1-0.1c-1.1-0.2-1.3-0.4-1.3-2.7v-11.2c0-0.7,0.1-0.7,0.7-0.7
	h1.5c1.9,0,2.3,1.2,2.7,2.8c0.1,0.2,0.8,0.2,0.9-0.1c-0.1-1.4,0.1-3.5,0.4-4.4c-0.1-0.1-0.2-0.2-0.4-0.2c-0.2,0-0.2,0-0.3,0.1
	c-0.2,0.5-0.6,0.6-2.3,0.6H348c-1.9,0-2-0.1-2.1-0.5c-0.1-0.1-0.2-0.1-0.4-0.1c-0.1,0-0.3,0.1-0.4,0.1c-0.2,1-0.3,2.6-0.8,4.3
	c0.2,0.3,0.6,0.4,0.9,0.2c0.8-1.9,1.3-2.9,3.1-2.9h1.6c0.6,0,0.6,0.1,0.6,0.7V126.4L350.6,126.4z M363.4,126.4
	c0,2.3-0.2,2.5-1.3,2.7l-0.7,0.1c-0.2,0.1-0.2,0.7,0,0.9c1.3-0.1,2.4-0.1,3.7-0.1c1.2,0,2.4,0,3.7,0.1c0.2-0.2,0.2-0.8,0-0.9
	l-0.7-0.1c-1.1-0.2-1.3-0.4-1.3-2.7v-3.1c0-0.5,0-0.6,0.9-0.6c0.6,0,1,0.2,1.3,0.9c0.6,1.3,1.2,2.6,2,3.9c1.1,1.8,2.6,2.7,4.9,2.7
	c0.8,0,1.6,0,2-0.2c0.1-0.2,0.1-0.5-0.1-0.7c-0.4,0-1-0.2-1.7-0.7c-1.2-1-2.3-2.9-3.9-6.3c-0.1-0.3-0.1-0.4,0.1-0.6
	c1.2-0.6,2.7-1.5,2.7-3.8c0-1.6-0.8-2.9-2.2-3.8c-1-0.6-2.8-0.9-5-0.9c-2.4,0-4.4,0.1-6.3,0.2c-0.3,0.1-0.3,0.8,0,0.9l0.7,0.1
	c1.1,0.2,1.1,0.4,1.1,3V126.4L363.4,126.4z M366.9,115.7c0-1.2,0-1.3,1.1-1.3c2,0,3.3,1.5,3.3,3.8c0,1.5-0.5,2.3-0.9,2.7
	c-0.5,0.5-1,0.7-1.9,0.7c-1.5,0-1.6-0.1-1.6-1V115.7L366.9,115.7z M385.7,124.6c0-1.4,0.3-2.1,0.9-3.3l1.6-2.9
	c1.2-2.2,1.9-3.1,2.2-3.6c0.3-0.4,0.8-0.5,1.2-0.6l0.7-0.1c0.2-0.2,0.2-0.8-0.1-0.9c-0.7,0.1-1.5,0.1-2.5,0.1c-0.9,0-1.8,0-2.8-0.1
	c-0.3,0.1-0.2,0.8,0,0.9l0.6,0.1c0.6,0.1,0.9,0.2,0.9,0.4c0,0.3-0.4,1.1-1.3,2.9c-0.7,1.3-1.4,2.8-2.1,4c-0.3-0.6-0.8-1.6-1.2-2.5
	l-1.2-2.7c-0.5-1.2-0.7-1.6-0.7-1.8c0,0,0.2-0.1,0.6-0.2l0.9-0.2c0.2-0.2,0.2-0.8,0-0.9c-0.9,0.1-2.2,0.1-3.7,0.1
	c-1.5,0-2.4,0-3.6-0.1c-0.3,0.1-0.3,0.7-0.1,0.9l0.9,0.2c0.9,0.2,1.1,0.6,1.6,1.6l3,6.2c0.7,1.3,0.7,1.8,0.7,3v1.3
	c0,2.4-0.2,2.5-1.3,2.7l-0.9,0.1c-0.2,0.2-0.2,0.7,0,0.9c1.5-0.1,2.8-0.1,4-0.1c1.2,0,2.5,0,4.1,0.1c0.2-0.2,0.2-0.7,0-0.9l-1-0.1
	c-1.1-0.2-1.3-0.4-1.3-2.7V124.6L385.7,124.6z M415.6,105.6c-3.8,0-7.5,1.1-10,3.2c-2.5,2.1-4.4,5.2-4.4,9.6c0,4.5,2,7.5,4.6,9.5
	c2.6,1.9,6.2,2.8,9.7,2.8c2.8,0,5.4-0.8,7.4-1.3c0.5-0.8,1.1-3,1.4-5.7c-0.2-0.4-1.1-0.5-1.4-0.3c-1,2.5-3,5.6-7.4,5.6
	c-4.4,0-8.5-3.9-8.5-11.1c0-7.2,4.3-10.7,8.3-10.7c3.5,0,5.8,1.8,6.8,5.2c0.3,0.3,1.2,0.2,1.4-0.3c-0.3-2.1-0.4-5-0.4-5.7
	C422,106.4,419.3,105.6,415.6,105.6L415.6,105.6z M434.7,112.9c-5.3,0-9.1,3.9-9.1,8.9c0,5.3,3.7,8.7,8.8,8.7c5.5,0,9.2-3.3,9.2-8.9
	C443.6,116.5,440,112.9,434.7,112.9L434.7,112.9z M439.6,122c0,4.1-1.3,7.4-4.6,7.4c-4.1,0-5.2-5-5.2-8.1c0-4.2,1.7-7.2,4.8-7.2
	C437.7,114.1,439.6,117.6,439.6,122L439.6,122z M447.4,123.3c0,2.8,0.6,4.6,1.9,5.7c1.4,1.1,3.1,1.4,5,1.4c2.1,0,3.9-0.6,5-1.8
	c1.4-1.5,1.6-3.7,1.6-6.1v-2.8c0-2.1,0.1-4,0.4-4.6c0.2-0.5,0.7-0.7,1.4-0.8l0.5-0.1c0.2-0.2,0.2-0.7,0-0.9c-1,0.1-1.9,0.1-2.8,0.1
	c-1,0-2,0-3.4-0.1c-0.2,0.2-0.2,0.7,0,0.9l0.7,0.1c0.7,0.1,1.2,0.3,1.5,0.8c0.3,0.7,0.4,2.6,0.4,4.6v3.1c0,3.5-1,6.3-4.2,6.3
	c-3.9,0-4.2-3.3-4.2-6.2V117c0-2.4,0.2-2.6,1.3-2.8l0.6-0.1c0.2-0.2,0.2-0.7,0-0.9c-1.2,0.1-2.5,0.1-3.7,0.1c-1.2,0-2.5,0-3.7-0.1
	c-0.3,0.2-0.3,0.7,0,0.9l0.6,0.1c1.1,0.2,1.3,0.4,1.3,2.7V123.3L447.4,123.3z M480,119.7c0-2.1,0.1-4,0.4-4.6
	c0.2-0.5,0.7-0.7,1.4-0.8l0.5-0.1c0.2-0.2,0.2-0.7,0-0.9c-1,0.1-1.9,0.1-2.8,0.1c-1,0-2,0-3.4-0.1c-0.2,0.2-0.2,0.7,0,0.9l0.7,0.1
	c0.7,0.1,1.2,0.3,1.5,0.8c0.3,0.7,0.4,2.6,0.4,4.6v3.5c0,0.5,0,0.9-0.1,1.1c-0.6-0.6-1.3-1.5-2.4-2.8l-2.1-2.5
	c-2.3-2.7-3.9-4.6-4.2-5.8c-0.5,0.1-1.3,0.1-2.1,0.1c-1,0-2.3,0-3.5-0.1c-0.3,0.1-0.3,0.7-0.1,0.9l0.7,0.1c0.9,0.1,1.2,0.4,1.4,0.9
	c0.2,0.4,0.2,0.8,0.2,2.2v6.4c0,2.1-0.1,4-0.4,4.6c-0.2,0.5-0.7,0.7-1.4,0.8l-0.4,0.1c-0.2,0.2-0.2,0.7,0,0.9c1-0.1,1.9-0.1,2.8-0.1
	c1,0,2,0,3.4,0.1c0.2-0.2,0.2-0.7,0-0.9l-0.7-0.1c-0.7-0.1-1.2-0.3-1.5-0.8c-0.3-0.7-0.4-2.6-0.4-4.6v-4.9c0-0.9,0-1.4,0.1-1.6
	c0.5,0.4,1.3,1.4,2.8,3.2l5.9,7.3c1.2,1.5,2,2.8,2.1,2.8c0.6,0,1.3-0.3,1.5-0.6c0-0.8,0-2.4,0-4.1V119.7L480,119.7z M493.5,112.9
	c-2.6,0-5.2,0.8-7,2.3c-1.7,1.4-3.1,3.6-3.1,6.7c0,3.1,1.4,5.3,3.2,6.6c1.8,1.3,4.3,1.9,6.8,1.9c2,0,3.8-0.6,5.2-0.9
	c0.4-0.6,0.8-2.1,1-4c-0.2-0.3-0.8-0.4-1-0.2c-0.7,1.7-2.1,3.9-5.2,3.9c-3,0-6-2.7-6-7.8c0-5,3-7.5,5.8-7.5c2.5,0,4.1,1.3,4.8,3.6
	c0.2,0.2,0.9,0.1,1-0.2c-0.2-1.5-0.3-3.5-0.3-4C498,113.5,496.1,112.9,493.5,112.9L493.5,112.9z M506.4,117c0-2.4,0.1-2.6,1.3-2.8
	l0.7-0.1c0.2-0.2,0.2-0.7,0-0.9c-1.4,0.1-2.6,0.1-3.8,0.1c-1.2,0-2.5,0-3.9-0.1c-0.2,0.2-0.2,0.7,0,0.9l0.7,0.1
	c1.2,0.2,1.3,0.4,1.3,2.8v9.3c0,2.4-0.2,2.6-1.3,2.8l-0.7,0.1c-0.2,0.2-0.2,0.7,0,0.9c1.4-0.1,2.6-0.1,3.9-0.1c1.2,0,2.4,0,3.8,0.1
	c0.2-0.2,0.2-0.7,0-0.9l-0.7-0.1c-1.2-0.2-1.3-0.4-1.3-2.8V117L506.4,117z M515.8,117c0-2.4,0.2-2.6,1.3-2.7l0.7-0.1
	c0.2-0.2,0.2-0.7,0-0.9c-1.3,0.1-2.5,0.1-3.8,0.1c-1.2,0-2.5,0-3.8-0.1c-0.3,0.2-0.3,0.7-0.1,0.9l0.7,0.1c1.1,0.2,1.3,0.4,1.3,2.7
	v9.4c0,2.4-0.2,2.6-1.3,2.7l-1,0.1c-0.2,0.2-0.2,0.7,0.1,0.9c1.6-0.1,2.8-0.1,4-0.1h3.4c2.1,0,4.5,0,5.9,0.1c0.4-0.7,1-2.8,1.1-4.1
	c-0.2-0.3-0.8-0.4-1-0.2c-1.5,2.9-2.2,3-4.5,3c-1.9,0-2.3-0.2-2.6-0.6c-0.3-0.4-0.4-1.2-0.4-2.4V117L515.8,117z"/>
<path fill="#FFFFFF" d="M273.3,90c1.3,0,1.6,0.1,1.7,0.7l1,3.1c0.4,1.3,0.7,2.2,0.7,2.5c0,0.2-0.1,0.5-1,0.6l-1.2,0.2
	c-0.4,0.3-0.3,1.1,0.1,1.3c1.7-0.1,3.1-0.1,4.9-0.1c1.9,0,3.8,0,5.6,0.1c0.3-0.2,0.3-1.1,0-1.3l-1.4-0.2c-1.3-0.2-1.7-1.1-2.4-3.2
	l-4.9-14.2c-0.9-2.6-1.3-3.9-1.6-5c-0.1-0.5-0.4-0.7-0.8-0.7c-0.1,0-1.4,1.8-3.2,2.2c0.1,1.1-0.6,2.3-1.4,4.6l-3.3,8.8
	c-1,2.6-1.6,4.4-2.2,5.8c-0.6,1.4-1.3,1.7-2.2,1.8l-1,0.1c-0.3,0.3-0.3,1.1,0.1,1.3c1.7,0,2.5-0.1,3.7-0.1c1.5,0,3,0,4.2,0.1
	c0.4-0.2,0.3-1,0.1-1.3l-1.1-0.2c-1-0.2-1.3-0.4-1.3-0.6c0-0.3,0-0.6,0.3-1.3l1.3-4.2c0.2-0.7,0.3-0.7,1.2-0.7H273.3L273.3,90z
	 M270,88c-0.9,0-1.1-0.1-0.8-1.1l0.9-2.7c0.5-1.7,1.1-3.2,1.5-4c0.3,0.8,0.8,2.2,1.3,3.8l0.9,2.9c0.3,0.9,0.1,1.1-0.7,1.1H270
	L270,88z M290.7,85.1c0-2.4,0.2-2.6,1.3-2.7l0.7-0.1c0.2-0.2,0.2-0.7,0-0.9c-1.3,0.1-2.5,0.1-3.8,0.1c-1.2,0-2.5,0-3.8-0.1
	c-0.3,0.2-0.3,0.7-0.1,0.9l0.7,0.1c1.1,0.2,1.3,0.4,1.3,2.7v9.4c0,2.4-0.2,2.6-1.3,2.7l-1,0.1c-0.2,0.2-0.2,0.7,0.1,0.9
	c1.6-0.1,2.8-0.1,4-0.1h3.4c2.1,0,4.5,0,5.9,0.1c0.4-0.7,1-2.8,1.1-4.1c-0.2-0.3-0.8-0.4-1-0.2c-1.5,2.9-2.2,3-4.5,3
	c-1.9,0-2.3-0.2-2.6-0.6c-0.3-0.4-0.4-1.2-0.4-2.4V85.1L290.7,85.1z M302,94.5c0,2.3-0.2,2.5-1.3,2.7l-0.7,0.2
	c-0.2,0.1-0.2,0.7,0,0.9c1.4-0.1,2.7-0.1,3.9-0.1c0.7,0,1.7,0.1,2.6,0.1c1.5,0,3.5-0.1,5-0.6c1.6-0.6,3-1.9,3-4.3
	c0-2.5-1.7-3.8-3.7-4.2c-0.2-0.1-0.4-0.1-0.4-0.2c0-0.1,0.3-0.2,0.5-0.3c0.8-0.2,2.6-1,2.6-3.2c0-1.5-0.7-2.6-1.8-3.2
	c-1.1-0.7-2.7-0.9-5.2-0.9c-2.5,0-4.4,0.1-6.3,0.2c-0.4,0-0.3,0.8-0.1,0.9l0.7,0.1c1.1,0.2,1.1,0.4,1.1,3V94.5L302,94.5z
	 M305.5,83.8c0-1.1,0-1.3,1.2-1.3c1.7,0,3.1,1.1,3.1,3.3c0,1.5-0.8,2.9-3,2.9c-1.3,0-1.3,0-1.3-0.7V83.8L305.5,83.8z M305.5,90.9
	c0-1,0-1,1.4-1c2.4,0,3.7,1.5,3.7,3.8c0,2.1-1,3.5-2.9,3.5c-2,0-2.2-1.2-2.2-3.2V90.9L305.5,90.9z M321.7,83.6c0-0.9,0-1,0.8-1h2
	c1.2,0,2,0.3,2.5,0.8c0.3,0.4,0.7,1.1,1,2c0.3,0.2,0.8,0.2,0.9-0.1c-0.1-1.7-0.3-3.5-0.3-3.9c-0.3,0-1.8,0.1-3.4,0.1h-5.4
	c-1.2,0-2.5,0-3.7-0.1c-0.3,0.2-0.3,0.7-0.1,0.9l0.6,0.1c1.1,0.2,1.3,0.4,1.3,2.7v9.5c0,2.3-0.2,2.5-1.3,2.7l-1.2,0.2
	c-0.2,0.1-0.2,0.7,0,0.9c1.9-0.1,3.1-0.1,4.4-0.1h3.3c2.1,0,4.5,0,5.9,0.1c0.4-0.7,1-2.7,1.1-4.1c-0.1-0.3-0.7-0.4-0.9-0.1
	c-1.4,2.9-2.3,2.9-4.5,2.9c-1.9,0-2.3-0.2-2.7-0.7c-0.3-0.4-0.4-1.2-0.4-2.4v-3c0-0.8,0-0.8,0.7-0.8h1.7c1.3,0,1.6,0.2,1.9,1.4
	l0.1,0.6c0.2,0.2,0.8,0.2,0.9,0c-0.1-0.8-0.1-1.7-0.1-2.7c0-1,0-1.9,0.1-2.7c-0.1-0.2-0.8-0.2-0.9,0l-0.1,0.6
	c-0.3,1.2-0.6,1.4-1.9,1.4h-1.7c-0.7,0-0.7-0.1-0.7-0.8V83.6L321.7,83.6z M333.1,94.5c0,2.3-0.2,2.5-1.3,2.7l-0.7,0.1
	c-0.2,0.1-0.2,0.7,0,0.9c1.3-0.1,2.4-0.1,3.7-0.1c1.2,0,2.4,0,3.7,0.1c0.2-0.2,0.2-0.8,0-0.9l-0.7-0.1c-1.1-0.2-1.3-0.4-1.3-2.7
	v-3.1c0-0.5,0.1-0.6,0.9-0.6c0.6,0,1,0.2,1.3,0.9c0.6,1.3,1.2,2.6,2,3.9c1.1,1.8,2.6,2.7,4.9,2.7c0.8,0,1.6,0,2-0.2
	c0.1-0.2,0.1-0.5-0.1-0.7c-0.4,0-1-0.2-1.7-0.7c-1.2-1-2.3-2.9-3.9-6.3c-0.1-0.3-0.1-0.4,0.1-0.6c1.2-0.6,2.7-1.5,2.7-3.8
	c0-1.6-0.8-2.9-2.2-3.8c-1-0.6-2.8-0.9-5-0.9c-2.4,0-4.4,0.1-6.3,0.2c-0.3,0.1-0.3,0.8,0,0.9l0.7,0.1c1.1,0.2,1.1,0.4,1.1,3V94.5
	L333.1,94.5z M336.6,83.8c0-1.2,0.1-1.3,1.1-1.3c2,0,3.3,1.5,3.3,3.8c0,1.5-0.5,2.3-0.9,2.7c-0.5,0.5-1,0.7-1.9,0.7
	c-1.5,0-1.6-0.1-1.6-1V83.8L336.6,83.8z M352.2,94.5c0,2.4-0.2,2.6-1.3,2.7l-1.1,0.1c-0.2,0.2-0.2,0.7,0,0.9
	c1.8-0.1,3.1-0.1,4.3-0.1c1.1,0,2.4,0,4.1,0.1c0.2-0.2,0.2-0.7,0-0.9l-1-0.1c-1.1-0.2-1.3-0.4-1.3-2.7V83.3c0-0.7,0.1-0.7,0.7-0.7
	h1.5c1.9,0,2.3,1.2,2.7,2.8c0.1,0.2,0.8,0.2,0.9-0.1c-0.1-1.4,0.1-3.5,0.4-4.4c0-0.1-0.2-0.2-0.4-0.2c-0.2,0-0.2,0-0.3,0.1
	c-0.2,0.5-0.6,0.6-2.3,0.6h-9.4c-1.9,0-2-0.1-2.1-0.5c-0.1-0.1-0.2-0.1-0.4-0.1c-0.1,0-0.3,0-0.4,0.1c-0.2,1-0.3,2.6-0.8,4.3
	c0.2,0.3,0.6,0.4,0.9,0.2c0.8-1.9,1.3-2.9,3.1-2.9h1.6c0.6,0,0.6,0.1,0.6,0.7V94.5L352.2,94.5z M368.4,92.4c0.9,0,1.1,0,1.2,0.5
	l0.7,2.2c0.3,0.9,0.5,1.5,0.5,1.7c0,0.2-0.1,0.3-0.7,0.4l-0.8,0.1c-0.3,0.2-0.2,0.7,0,0.9c1.2-0.1,2.2-0.1,3.4-0.1
	c1.3,0,2.7,0,3.9,0.1c0.2-0.2,0.2-0.8,0-0.9l-1-0.2c-0.9-0.2-1.2-0.7-1.7-2.3l-3.5-9.9c-0.6-1.8-0.9-2.7-1.1-3.5
	c-0.1-0.4-0.3-0.5-0.6-0.5c0,0-1,1.2-2.2,1.5c0.1,0.7-0.4,1.6-1,3.2l-2.3,6.2c-0.7,1.8-1.1,3-1.6,4.1c-0.4,1-0.9,1.2-1.5,1.3
	l-0.7,0.1c-0.2,0.2-0.2,0.7,0.1,0.9c1.2,0,1.8-0.1,2.6-0.1c1.1,0,2.1,0,3,0.1c0.3-0.1,0.2-0.7,0-0.9l-0.8-0.1
	c-0.7-0.1-0.9-0.3-0.9-0.4c0-0.2,0-0.4,0.2-0.9l0.9-2.9c0.2-0.5,0.2-0.5,0.8-0.5H368.4L368.4,92.4z M366,91.1
	c-0.6,0-0.8-0.1-0.5-0.8l0.6-1.9c0.4-1.2,0.8-2.2,1-2.8c0.2,0.5,0.6,1.6,0.9,2.7l0.7,2.1c0.2,0.7,0.1,0.7-0.5,0.7H366L366,91.1z
	 M386.7,75.5c1.5,0.3,2.2,0.8,2.2,2.9c0,2-0.1,4.9-0.3,7.3c-0.2,3.4-0.4,6.6-0.6,8.4c-0.2,2.2-0.3,2.5-2.2,2.8l-0.7,0.1
	c-0.3,0.2-0.3,1.1,0.1,1.3c1.5-0.1,2.9-0.1,4.1-0.1c1.4,0,2.9,0,4.3,0.1c0.3-0.2,0.4-1,0.1-1.3l-1.4-0.2c-1.5-0.2-1.7-0.7-1.7-2.5
	c0-2.2,0-5.8,0.1-8.2c0-1.9,0.1-3.3,0.3-5.7h0.1c2,4.7,6.3,13.5,7.8,18c0.2,0.1,0.6,0.2,0.9,0.2c0.3,0,0.5-0.1,0.7-0.3
	c2.4-6.1,5.3-12.2,8-18h0.1v4.1l0.1,9.4c0,2.2,0,2.6-1.7,2.9L406,97c-0.4,0.3-0.3,1.1,0.1,1.3c1.7-0.1,3.7-0.1,5.4-0.1
	c1.8,0,3.3,0,5,0.1c0.4-0.1,0.4-1,0.1-1.3l-1.2-0.1c-1.4-0.2-1.6-1.1-1.6-2.7c-0.2-4.6-0.3-8.5-0.3-15.9c0-1.9,0.7-2.4,2.2-2.6
	l1.1-0.2c0.3-0.4,0.3-1.1-0.1-1.3c-1.3,0.1-3,0.1-4.2,0.1c-1.1,0-2.2,0-3.9-0.1c-0.8,3.1-1.6,4.8-3.3,8.6l-1.8,4
	c-1,2.1-1.6,3.3-2,4.1c-0.5-0.9-1.6-3-2-3.7L397,82c-1.6-3.4-2.9-5.6-2.9-7.9c-1.3,0.1-2.4,0.1-3.6,0.1c-1.8,0-3.3,0-4.6-0.1
	c-0.4,0.1-0.4,1-0.1,1.3L386.7,75.5L386.7,75.5z M427.7,81c-5.3,0-9.1,3.9-9.1,8.9c0,5.3,3.7,8.7,8.8,8.7c5.5,0,9.2-3.3,9.2-8.9
	C436.6,84.5,432.9,81,427.7,81L427.7,81z M432.5,90c0,4.1-1.3,7.4-4.6,7.4c-4.1,0-5.2-5-5.2-8.1c0-4.2,1.7-7.2,4.8-7.2
	C430.6,82.2,432.5,85.7,432.5,90L432.5,90z M443.3,94.5c0,2.4-0.2,2.6-1.3,2.7l-1.1,0.1c-0.2,0.2-0.2,0.7,0,0.9
	c1.8-0.1,3.1-0.1,4.3-0.1c1.1,0,2.4,0,4.1,0.1c0.2-0.2,0.2-0.7,0-0.9l-1-0.1c-1.1-0.2-1.3-0.4-1.3-2.7V83.3c0-0.7,0.1-0.7,0.7-0.7
	h1.5c1.9,0,2.3,1.2,2.7,2.8c0.1,0.2,0.8,0.2,0.9-0.1c0-1.4,0.1-3.5,0.4-4.4c0-0.1-0.2-0.2-0.4-0.2c-0.2,0-0.2,0-0.3,0.1
	c-0.2,0.5-0.6,0.6-2.3,0.6h-9.4c-1.9,0-2-0.1-2.1-0.5c-0.1-0.1-0.2-0.1-0.4-0.1c-0.1,0-0.3,0-0.4,0.1c-0.2,1-0.3,2.6-0.8,4.3
	c0.2,0.3,0.6,0.4,0.9,0.2c0.8-1.9,1.3-2.9,3.1-2.9h1.6c0.6,0,0.6,0.1,0.6,0.7V94.5L443.3,94.5z M462.3,81c-5.3,0-9.1,3.9-9.1,8.9
	c0,5.3,3.7,8.7,8.8,8.7c5.5,0,9.2-3.3,9.2-8.9C471.3,84.5,467.6,81,462.3,81L462.3,81z M467.2,90c0,4.1-1.3,7.4-4.6,7.4
	c-4.1,0-5.2-5-5.2-8.1c0-4.2,1.7-7.2,4.8-7.2C465.3,82.2,467.2,85.7,467.2,90L467.2,90z M475.2,94.5c0,2.3-0.2,2.5-1.3,2.7l-0.7,0.1
	c-0.2,0.1-0.2,0.7,0,0.9c1.3-0.1,2.4-0.1,3.7-0.1c1.2,0,2.4,0,3.7,0.1c0.2-0.2,0.2-0.8,0-0.9l-0.7-0.1c-1.1-0.2-1.3-0.4-1.3-2.7
	v-3.1c0-0.5,0.1-0.6,0.9-0.6c0.6,0,1,0.2,1.3,0.9c0.6,1.3,1.2,2.6,2,3.9c1.1,1.8,2.6,2.7,4.9,2.7c0.8,0,1.6,0,2-0.2
	c0.1-0.2,0.1-0.5-0.1-0.7c-0.4,0-1-0.2-1.7-0.7c-1.2-1-2.3-2.9-3.9-6.3c-0.1-0.3-0.1-0.4,0.1-0.6c1.2-0.6,2.7-1.5,2.7-3.8
	c0-1.6-0.8-2.9-2.2-3.8c-1-0.6-2.8-0.9-5-0.9c-2.4,0-4.4,0.1-6.3,0.2c-0.3,0.1-0.3,0.8-0.1,0.9l0.7,0.1c1.1,0.2,1.1,0.4,1.1,3V94.5
	L475.2,94.5z M478.6,83.8c0-1.2,0.1-1.3,1.1-1.3c2,0,3.3,1.5,3.3,3.8c0,1.5-0.5,2.3-0.9,2.7c-0.5,0.5-1,0.7-1.9,0.7
	c-1.5,0-1.6-0.1-1.6-1V83.8L478.6,83.8z M515.6,82.9c1.2-2.9,2.2-4.9,3-6.1c0.5-0.8,1-1.1,2-1.3l0.9-0.2c0.3-0.2,0.2-1.1-0.1-1.2
	c-1.1,0.1-2.1,0.1-3.4,0.1c-1.4,0-2.8,0-4.5-0.1c-0.4,0.2-0.4,0.9-0.1,1.2l1.1,0.3c0.9,0.2,1,0.4,1,0.6c0,0.2-0.1,0.6-0.4,1.3
	c-0.4,1.2-2,5.3-2.9,7.6l-1.3,3.4c-0.4,1.1-0.9,2.1-1.2,2.7c-0.3-0.6-0.6-1.4-1.1-2.8l-3.2-8.2c-0.9-2.2-1.4-3.7-1.4-4
	c0-0.3,0.3-0.5,0.9-0.7l1.1-0.2c0.2-0.3,0.3-1,0-1.2c-2.2,0.1-3.8,0.1-5.4,0.1c-1.9,0-3.1-0.1-4.9-0.1c-0.3,0.2-0.4,0.8-0.1,1.2
	l1.4,0.4c1.2,0.3,1.3,0.4,2.7,3.8l5.9,14.8c0.5,1.2,1.1,3.2,1.5,4.1c0.2,0.2,0.5,0.3,1,0.3c0.5,0,1-0.1,1.3-0.3
	c0.8-2,1.8-4.9,3.7-9.3L515.6,82.9L515.6,82.9z M526.3,83.6c0-0.9,0-1,0.8-1h2c1.2,0,2,0.3,2.5,0.8c0.3,0.4,0.7,1.1,1,2
	c0.3,0.2,0.8,0.2,0.9-0.1c-0.1-1.7-0.3-3.5-0.3-3.9c-0.3,0-1.8,0.1-3.4,0.1h-5.4c-1.2,0-2.5,0-3.7-0.1c-0.3,0.2-0.3,0.7-0.1,0.9
	l0.6,0.1c1.1,0.2,1.3,0.4,1.3,2.7v9.5c0,2.3-0.2,2.5-1.3,2.7l-1.2,0.2c-0.2,0.1-0.2,0.7,0,0.9c1.9-0.1,3.1-0.1,4.4-0.1h3.3
	c2.1,0,4.5,0,5.9,0.1c0.4-0.7,1-2.7,1.1-4.1c-0.1-0.3-0.7-0.4-0.9-0.1c-1.4,2.9-2.3,2.9-4.5,2.9c-1.9,0-2.3-0.2-2.7-0.7
	c-0.3-0.4-0.4-1.2-0.4-2.4v-3c0-0.8,0-0.8,0.7-0.8h1.8c1.3,0,1.6,0.2,1.9,1.4l0.1,0.6c0.2,0.2,0.8,0.2,0.9,0c0-0.8-0.1-1.7-0.1-2.7
	c0-1,0-1.9,0.1-2.7c-0.1-0.2-0.8-0.2-0.9,0l-0.1,0.6c-0.3,1.2-0.6,1.4-1.9,1.4H527c-0.7,0-0.7-0.1-0.7-0.8V83.6L526.3,83.6z
	 M547.7,90.1c1.1,0,1.1,0,1.1,0.7v3.7c0,2.4-0.1,2.6-1.3,2.8l-0.6,0.1c-0.2,0.2-0.2,0.7,0,0.9c1.2-0.1,2.5-0.1,3.7-0.1
	c1.2,0,2.4,0,3.7,0.1c0.2-0.2,0.2-0.7,0-0.9l-0.6-0.1c-1.2-0.2-1.3-0.4-1.3-2.7v-9.4c0-2.4,0.2-2.6,1.3-2.8l0.5-0.1
	c0.2-0.2,0.2-0.7,0-0.9c-1.2,0.1-2.3,0.1-3.6,0.1c-1.2,0-2.5,0-3.9-0.1c-0.2,0.2-0.2,0.7,0,0.9l0.7,0.1c1.2,0.2,1.3,0.4,1.3,2.7V88
	c0,0.7,0,0.8-1.1,0.8h-5.3c-1,0-1.1,0-1.1-0.8v-2.9c0-2.4,0.2-2.6,1.2-2.8l0.5-0.1c0.2-0.2,0.2-0.7,0-0.9c-1.1,0.1-2.4,0.1-3.5,0.1
	c-1.2,0-2.5,0-3.8-0.1c-0.2,0.2-0.2,0.7,0,0.9l0.6,0.1c1.2,0.2,1.3,0.4,1.3,2.8v9.4c0,2.4-0.1,2.6-1.3,2.8l-0.6,0.1
	c-0.2,0.2-0.2,0.7,0,0.9c1.3-0.1,2.6-0.1,3.8-0.1c1.1,0,2.4,0,3.9,0.1c0.2-0.2,0.2-0.7,0-0.9l-0.8-0.1c-1.1-0.2-1.3-0.4-1.3-2.7
	v-3.7c0-0.7,0-0.7,1.1-0.7H547.7L547.7,90.1z M561.8,85.1c0-2.4,0.2-2.6,1.3-2.8l0.7-0.1c0.2-0.2,0.2-0.7,0-0.9
	c-1.4,0.1-2.6,0.1-3.8,0.1c-1.2,0-2.5,0-3.9-0.1c-0.2,0.2-0.2,0.7,0,0.9l0.7,0.1c1.2,0.2,1.3,0.4,1.3,2.8v9.3c0,2.4-0.2,2.6-1.3,2.8
	l-0.7,0.1c-0.2,0.2-0.2,0.7,0,0.9c1.4-0.1,2.6-0.1,3.9-0.1c1.2,0,2.4,0,3.8,0.1c0.2-0.2,0.2-0.7,0-0.9l-0.7-0.1
	c-1.2-0.2-1.3-0.4-1.3-2.8V85.1L561.8,85.1z M575.8,81c-2.6,0-5.2,0.8-7,2.3c-1.8,1.4-3.1,3.6-3.1,6.7c0,3.1,1.4,5.3,3.2,6.6
	c1.8,1.3,4.3,1.9,6.8,1.9c2,0,3.8-0.6,5.2-0.9c0.4-0.6,0.8-2.1,1-4c-0.2-0.3-0.8-0.4-1-0.2c-0.7,1.7-2.1,3.9-5.2,3.9
	c-3,0-6-2.7-6-7.8c0-5,3-7.5,5.8-7.5c2.5,0,4.1,1.3,4.8,3.6c0.2,0.2,0.9,0.1,1-0.2c-0.2-1.5-0.3-3.5-0.3-4
	C580.3,81.6,578.4,81,575.8,81L575.8,81z M588.7,85.1c0-2.4,0.2-2.6,1.3-2.7l0.7-0.1c0.2-0.2,0.2-0.7,0-0.9
	c-1.3,0.1-2.5,0.1-3.8,0.1c-1.2,0-2.5,0-3.8-0.1c-0.3,0.2-0.3,0.7,0,0.9l0.7,0.1c1.1,0.2,1.3,0.4,1.3,2.7v9.4c0,2.4-0.2,2.6-1.3,2.7
	l-1,0.1c-0.2,0.2-0.2,0.7,0.1,0.9c1.6-0.1,2.8-0.1,4-0.1h3.4c2.1,0,4.5,0,5.9,0.1c0.4-0.7,1-2.8,1.1-4.1c-0.2-0.3-0.8-0.4-1-0.2
	c-1.5,2.9-2.2,3-4.5,3c-1.9,0-2.3-0.2-2.6-0.6c-0.3-0.4-0.4-1.2-0.4-2.4V85.1L588.7,85.1z M603.5,83.6c0-0.9,0-1,0.8-1h2
	c1.2,0,2,0.3,2.5,0.8c0.3,0.4,0.7,1.1,1,2c0.3,0.2,0.8,0.2,0.9-0.1c-0.1-1.7-0.3-3.5-0.3-3.9c-0.3,0-1.8,0.1-3.4,0.1h-5.4
	c-1.2,0-2.5,0-3.7-0.1c-0.3,0.2-0.3,0.7-0.1,0.9l0.6,0.1c1.1,0.2,1.3,0.4,1.3,2.7v9.5c0,2.3-0.2,2.5-1.3,2.7l-1.2,0.2
	c-0.2,0.1-0.2,0.7,0,0.9c1.9-0.1,3.1-0.1,4.4-0.1h3.3c2.1,0,4.5,0,5.9,0.1c0.4-0.7,1-2.7,1.1-4.1c-0.1-0.3-0.7-0.4-0.9-0.1
	c-1.4,2.9-2.3,2.9-4.5,2.9c-1.9,0-2.3-0.2-2.7-0.7c-0.3-0.4-0.4-1.2-0.4-2.4v-3c0-0.8,0-0.8,0.7-0.8h1.8c1.3,0,1.6,0.2,1.9,1.4
	l0.1,0.6c0.2,0.2,0.8,0.2,0.9,0c0-0.8-0.1-1.7-0.1-2.7c0-1,0-1.9,0.1-2.7c-0.1-0.2-0.8-0.2-0.9,0l-0.1,0.6c-0.3,1.2-0.6,1.4-1.9,1.4
	h-1.8c-0.7,0-0.7-0.1-0.7-0.8V83.6L603.5,83.6z"/>
</svg>
