<?xml version="1.0" encoding="utf-8"?>
<!-- Generator: Adobe Illustrator 18.1.0, SVG Export Plug-In . SVG Version: 6.00 Build 0)  -->
<svg version="1.1" id="Layer_1" xmlns="http://www.w3.org/2000/svg" xmlns:xlink="http://www.w3.org/1999/xlink" x="0px" y="0px"
	 viewBox="0 0 792 248.9" enable-background="new 0 0 792 248.9" xml:space="preserve">
<g>
	<path fill="#F26524" d="M66.7,94.4c-9.6,0-17,3.8-22.1,9.4c-5.1,5.6-7.9,13.1-7.9,20.7c0,7.5,2.8,15,7.9,20.7
		c5.1,5.6,12.6,9.4,22.1,9.4c9.5,0,17-3.8,22.1-9.4c5.1-5.6,7.9-13.2,7.9-20.7c0-7.5-2.8-15-7.9-20.7C83.6,98.2,76.2,94.4,66.7,94.4
		z"/>
	<path fill="#F26524" d="M182.3,94.4c-9.6,0-17,3.8-22.1,9.4c-5.1,5.6-7.9,13.1-7.9,20.7c0,7.5,2.8,15,7.9,20.7
		c5.1,5.6,12.6,9.4,22.1,9.4c9.5,0,17-3.8,22.1-9.4c5.1-5.6,7.9-13.2,7.9-20.7c0-7.5-2.8-15-7.9-20.7
		C199.2,98.2,191.8,94.4,182.3,94.4z"/>
	<path fill="#F26524" d="M124.4,0C55.7,0,0,55.7,0,124.5c0,33.3,13.1,63.5,34.4,85.9h20.3h10.5c11,0,19-2.4,24.1-7
		c5.1-4.5,7.7-11.3,7.7-20.9v-14.2c-8.2,5.6-18.3,9.2-30.3,9.2h0c-16.7,0-30-6.7-39.1-16.6c-9.1-10-14-23.2-14-36.4v0
		c0-13.2,4.9-26.4,14-36.4c9.1-10,22.4-16.6,39.1-16.6h0c12.1,0,22.3,3.7,30.6,9.4c0.7-3.9,4-6.9,8.1-6.9h7.2c4.6,0,8.4,3.8,8.4,8.4
		v35.5v63.3c0,14.4-3.5,26.6-11.1,35.5c-7.6,9-19.3,14.5-35.1,16h-0.1l-11.8,0l-0.4-0.2c-9.3-5.4-17.9-11.9-25.5-19.4l-2.4-2.4
		c22.6,23.6,54.5,38.3,89.8,38.3c68.8,0,124.5-55.7,124.5-124.5C248.9,55.7,193.2,0,124.4,0z M221.3,160.9
		c-9.1,10-22.4,16.6-39,16.6h0c-16.7,0-30-6.7-39.1-16.6c-9.1-10-14-23.2-14-36.4v0c0-13.2,4.9-26.4,14-36.4
		c9.1-10,22.4-16.6,39.1-16.6h0c16.6,0,29.9,6.7,39,16.6c9.1,10,14,23.2,14,36.4v0C235.3,137.7,230.4,150.9,221.3,160.9z"/>
</g>
<g>
	<path fill="#213F4C" d="M643,208.6h-0.9v0h-22.9c-5.5,0-8.5-0.9-9.9-2.1c-1.3-1-2.5-3-2.5-7.8v-55.7h25.8H643c21,0,21-29.7,0-29.7
		h-36.2l0-8.4v-4.5h0V92c0-19.3-32.9-19.3-32.9,0v8.5h-0.1v95.7l0.1,1v1.9c0,1.3,0.2,2.4,0.4,3.6c1.1,9.3,4.5,17.5,10.5,23.5
		c7.3,7.4,18.1,11.5,30.9,11.5h0.2h26v0h0.9c8.7,0,15.9-6.6,15.9-14.5C658.9,215.3,651.7,208.6,643,208.6z"/>
	<path fill="#213F4C" d="M727,112.2c-37.6,0-65.5,28.5-65.5,63.7v0.4c0,35.1,27.7,63.2,65,63.2c37.6,0,65.5-28.5,65.5-63.7v-0.5
		C792,140.2,764.3,112.2,727,112.2z M758.3,176.3c0,18-11.7,33.3-31.3,33.3c-18.9,0-31.7-15.8-31.7-33.8v-0.5
		c0-18,11.7-33.3,31.3-33.3c18.9,0,31.7,15.8,31.7,33.8V176.3z"/>
	<path fill="#213F4C" d="M519.5,126.6c0,2.8,0,63.1,0,63.1c0,13.4-11.8,22.8-28.7,22.8c-16.7,0-28.9-9.6-28.9-22.8
		c0,0,0-60.2,0-63.1c0-19.2-32.7-19.2-32.7,0v57.2c0,27.9,21.2,56,61.6,56c40.3,0,61.4-28.2,61.4-56c0,0,0-55.8,0-57.2
		C552.2,107.3,519.5,107.3,519.5,126.6z"/>
	<path fill="#213F4C" d="M351.1,87.7c-6.1-10.5-28-12.8-35.8-0.1c-6,9.9-64.7,131.8-64.7,131.8c-7.6,18.2,26.6,29,35.5,10.6
		c1.3-2.7,14.8-32,14.8-32l11.4-26.4l11.7-26.4c5.3-11.6,7.9-18.3,9.7-23.8h0.6c1.5,5.3,4.1,12,8.8,23.6l10.6,25.4h-16.6
		c-21,0-21,29.6,0,29.6h30.3c3.1,6.5,13.3,27.6,14.4,30c9.1,18.8,44,7.9,36.8-10.6C418.7,219.4,356.2,96.3,351.1,87.7z"/>
</g>
</svg>
